<?xml version="1.0" encoding="UTF-8" standalone="no"?>
<!-- Created with Inkscape (http://www.inkscape.org/) -->

<svg
   id="svg2"
   version="1.1"
   inkscape:version="1.2 (dc2aedaf03, 2022-05-15)"
   xml:space="preserve"
   width="360.57944"
   height="105.44862"
   viewBox="0 0 360.57944 105.44861"
   sodipodi:docname="CLASP.svg"
   xmlns:inkscape="http://www.inkscape.org/namespaces/inkscape"
   xmlns:sodipodi="http://sodipodi.sourceforge.net/DTD/sodipodi-0.dtd"
   xmlns="http://www.w3.org/2000/svg"
   xmlns:svg="http://www.w3.org/2000/svg"
   xmlns:rdf="http://www.w3.org/1999/02/22-rdf-syntax-ns#"
   xmlns:cc="http://creativecommons.org/ns#"
   xmlns:dc="http://purl.org/dc/elements/1.1/"><metadata
     id="metadata8"><rdf:RDF><cc:Work
         rdf:about=""><dc:format>image/svg+xml</dc:format><dc:type
           rdf:resource="http://purl.org/dc/dcmitype/StillImage" /></cc:Work></rdf:RDF></metadata><defs
     id="defs6"><clipPath
       clipPathUnits="userSpaceOnUse"
       id="clipPath18"><path
         d="M 0.09834711,376.0226 H 594.87375 v 88.45831 H 0.09834711 Z"
         id="path20"
         inkscape:connector-curvature="0" /></clipPath><clipPath
       clipPathUnits="userSpaceOnUse"
       id="clipPath116"><path
         d="M 0.09834711,376.0226 H 594.87375 v 88.45831 H 0.09834711 Z"
         id="path118"
         inkscape:connector-curvature="0" /></clipPath><clipPath
       clipPathUnits="userSpaceOnUse"
       id="clipPath128"><path
         d="m 0,375.9242 h 595 v 90.15152 H 0 Z"
         id="path130"
         inkscape:connector-curvature="0" /></clipPath><clipPath
       clipPathUnits="userSpaceOnUse"
       id="clipPath152"><path
         d="M 0.09834711,376.0226 H 594.87375 v 88.45831 H 0.09834711 Z"
         id="path154"
         inkscape:connector-curvature="0" /></clipPath></defs><sodipodi:namedview
     pagecolor="#ffffff"
     bordercolor="#666666"
     borderopacity="1"
     objecttolerance="10"
     gridtolerance="10"
     guidetolerance="10"
     inkscape:pageopacity="0"
     inkscape:pageshadow="2"
     inkscape:window-width="1347"
     inkscape:window-height="750"
     id="namedview4"
     showgrid="false"
     fit-margin-top="0"
     fit-margin-left="0"
     fit-margin-right="0"
     fit-margin-bottom="0"
     inkscape:zoom="1.17019"
     inkscape:cx="371.73449"
     inkscape:cy="58.110219"
     inkscape:window-x="0"
     inkscape:window-y="0"
     inkscape:window-maximized="0"
     inkscape:current-layer="g10"
     inkscape:showpageshadow="2"
     inkscape:pagecheckerboard="0"
     inkscape:deskcolor="#d1d1d1" /><g
     id="g10"
     inkscape:groupmode="layer"
     inkscape:label="CLASP_Ordbild_orange"
     transform="matrix(1.25,0,0,-1.25,-0.12293389,580.60113)"><g
       id="g12" /><g
       id="g14"><g
         id="g16"
         clip-path="url(#clipPath18)"><path
           d="m 36.38187,435.4882 c 0,11.8246 -2.38819,16.9403 -9.77898,16.9403 -8.18576,0 -10.23137,-8.1858 -10.23137,-31.2646 0,-24.5589 3.411,-28.9927 10.45921,-28.9927 5.7992,0 10.23302,2.957 10.23302,20.5791 h 16.37151 c 0,-17.6221 -4.32071,-32.6283 -25.80956,-32.6283 C 3.070069,380.122 0,397.6278 0,422.2998 c 0,24.672 3.070069,42.1811 27.6257,42.1811 23.42301,0 25.12769,-17.1681 25.12769,-28.9927 H 36.38187"
           style="fill:#f68712;fill-opacity:1;fill-rule:nonzero;stroke:none"
           id="path22"
           inkscape:connector-curvature="0" /></g></g><path
       d="m 62.76021,381.712 v 81.1773 H 79.13172 V 395.1282 H 108.1228 V 381.712 H 62.76021"
       style="fill:#f68712;fill-opacity:1;fill-rule:nonzero;stroke:none"
       id="path32"
       inkscape:connector-curvature="0" /><path
       d="m 133.3652,412.2963 h 15.9159 l -7.8432,36.495 h -0.2295 z m -2.162,50.593 h 20.2382 l 21.4872,-81.1773 h -17.0534 l -3.7519,17.1665 h -21.6019 l -3.752,-17.1665 H 109.716 l 21.4872,81.1773"
       style="fill:#f68712;fill-opacity:1;fill-rule:nonzero;stroke:none"
       id="path34"
       inkscape:connector-curvature="0" /><path
       d="m 191.8047,407.0659 v -2.3882 c 0,-7.6154 2.1604,-12.5065 10.8018,-12.5065 5.0026,0 9.7774,3.1832 9.7774,10.0052 0,7.276 -3.6372,10.233 -14.5521,13.8718 -14.5538,4.8879 -21.261,11.1411 -21.261,24.5573 0,15.9158 9.5495,23.8754 25.126,23.8754 14.5521,0 25.1261,-6.2532 25.1261,-21.8298 v -2.2734 h -15.6897 c 0,7.7317 -2.5013,12.0508 -8.8676,12.0508 -7.3908,0 -9.3233,-4.547 -9.3233,-9.4364 0,-5.0026 1.4785,-8.1858 8.4136,-11.028 l 12.6195,-5.4567 c 12.2787,-5.4582 15.4635,-11.4836 15.4635,-21.4888 0,-17.1681 -10.4609,-24.8966 -28.1978,-24.8966 -18.5318,0 -25.8079,8.6382 -25.8079,23.6459 v 3.298 h 16.3715"
       style="fill:#f68712;fill-opacity:1;fill-rule:nonzero;stroke:none"
       id="path36"
       inkscape:connector-curvature="0" /><path
       d="m 253.9978,426.1649 h 7.2777 c 6.4811,0 10.9149,3.8666 10.9149,12.1671 0,8.0711 -3.1848,12.5049 -11.3706,12.5049 h -6.822 z m -16.3715,36.7244 h 28.6501 c 16.7141,0 22.2855,-12.1655 22.2855,-24.3311 0,-16.8272 -10.3478,-24.4441 -25.8096,-24.4441 h -8.7545 V 381.712 h -16.3715 v 81.1773"
       style="fill:#f68712;fill-opacity:1;fill-rule:nonzero;stroke:none"
       id="path38"
       inkscape:connector-curvature="0" /></g></svg>
